<?xml version="1.0" encoding="UTF-8" standalone="no"?>
<!-- Created with Inkscape (http://www.inkscape.org/) -->

<svg
   width="40"
   height="40"
   viewBox="0 0 10.583333 10.583333"
   version="1.1"
   id="svg5"
   inkscape:version="1.1.1 (3bf5ae0d25, 2021-09-20)"
   sodipodi:docname="ciel.mini.svg"
   xmlns:inkscape="http://www.inkscape.org/namespaces/inkscape"
   xmlns:sodipodi="http://sodipodi.sourceforge.net/DTD/sodipodi-0.dtd"
   xmlns="http://www.w3.org/2000/svg"
   xmlns:svg="http://www.w3.org/2000/svg">
  <sodipodi:namedview
     id="namedview7"
     pagecolor="#ffffff"
     bordercolor="#666666"
     borderopacity="1.0"
     inkscape:pageshadow="2"
     inkscape:pageopacity="0.0"
     inkscape:pagecheckerboard="0"
     inkscape:document-units="mm"
     showgrid="false"
     units="px"
     height="40px"
     inkscape:zoom="3.7543719"
     inkscape:cx="57.000214"
     inkscape:cy="126.78552"
     inkscape:window-width="1920"
     inkscape:window-height="2041"
     inkscape:window-x="1388"
     inkscape:window-y="204"
     inkscape:window-maximized="0"
     inkscape:current-layer="layer1"
     width="40px" />
  <defs
     id="defs2" />
  <g
     inkscape:label="Calque 1"
     inkscape:groupmode="layer"
     id="layer1">
    <g
       id="g30612"
       transform="translate(0.04727897,0.5248734)">
      <path
         id="path14538-71-6-2-80"
         style="color:#000000;overflow:visible;fill:#d8e8f6;fill-opacity:0.946163;stroke:none;stroke-width:0.367379;stroke-linejoin:bevel;stroke-opacity:1"
         d="M 15.255859,3.078125 A 3.1200902,3.1374827 0 0 0 12.460938,4.8242188 1.8372773,1.847519 0 0 0 10.736328,3.6152344 1.8372773,1.847519 0 0 0 8.8984375,5.4628906 1.8372773,1.847519 0 0 0 9.046875,6.1835938 3.1200902,3.1374827 0 0 0 8.7871094,6.2617188 3.1200902,3.1374827 0 0 0 6.78125,5.5253906 3.1200902,3.1374827 0 0 0 4.125,7.0214844 1.8372773,1.847519 0 0 0 3.6953125,7.7832031 1.8372773,1.847519 0 0 0 3.390625,7.7578125 1.8372773,1.847519 0 0 0 1.5527344,9.6054688 1.8372773,1.847519 0 0 0 2.546875,11.244141 a 1.8372773,1.847519 0 0 0 -0.052734,0.433593 1.8372773,1.847519 0 0 0 1.8378906,1.847657 1.8372773,1.847519 0 0 0 1.8359376,-1.78711 3.1200902,3.1374827 0 0 0 0.6132812,0.0625 3.1200902,3.1374827 0 0 0 0.6914062,-0.07813 3.1200902,3.1374827 0 0 0 -0.044922,0.519532 3.1200902,3.1374827 0 0 0 3.1191404,3.136718 3.1200902,3.1374827 0 0 0 2.787109,-1.730468 3.1200902,3.1374827 0 0 0 1.544922,0.412109 3.1200902,3.1374827 0 0 0 2.09375,-0.810547 3.1200902,3.1374827 0 0 0 1.689453,-0.933594 3.1200902,3.1374827 0 0 0 0.548829,0.05078 3.1200902,3.1374827 0 0 0 0.433593,-0.03125 3.1200902,3.1374827 0 0 0 1.826172,0.595703 A 3.1200902,3.1374827 0 0 0 24.591797,9.7929688 3.1200902,3.1374827 0 0 0 21.470703,6.65625 3.1200902,3.1374827 0 0 0 21.041016,6.6875 3.1200902,3.1374827 0 0 0 19.210938,6.0917969 3.1200902,3.1374827 0 0 0 18.375,6.2089844 3.1200902,3.1374827 0 0 0 15.255859,3.078125 Z"
         transform="scale(0.26458333)" />
      <path
         id="path20241"
         style="color:#000000;overflow:visible;fill:#c4dcf1;fill-opacity:0.946163;stroke:none;stroke-width:0.367379;stroke-linejoin:bevel;stroke-opacity:1"
         d="M 4.6191406,6.40625 A 3.1200902,3.1374827 0 0 0 4.125,7.0214844 1.8372773,1.847519 0 0 0 3.6953125,7.7832031 1.8372773,1.847519 0 0 0 3.390625,7.7578125 1.8372773,1.847519 0 0 0 1.5527344,9.6054688 1.8372773,1.847519 0 0 0 2.546875,11.244141 a 1.8372773,1.847519 0 0 0 -0.052734,0.433593 1.8372773,1.847519 0 0 0 1.8378906,1.847657 1.8372773,1.847519 0 0 0 1.8359376,-1.78711 3.1200902,3.1374827 0 0 0 0.6132812,0.0625 3.1200902,3.1374827 0 0 0 0.6914062,-0.07813 3.1200902,3.1374827 0 0 0 -0.044922,0.519532 3.1200902,3.1374827 0 0 0 3.1191404,3.136718 3.1200902,3.1374827 0 0 0 2.787109,-1.730468 3.1200902,3.1374827 0 0 0 1.544922,0.412109 3.1200902,3.1374827 0 0 0 2.09375,-0.810547 3.1200902,3.1374827 0 0 0 1.689453,-0.933594 3.1200902,3.1374827 0 0 0 0.548829,0.05078 3.1200902,3.1374827 0 0 0 0.433593,-0.03125 3.1200902,3.1374827 0 0 0 1.826172,0.595703 3.1200902,3.1374827 0 0 0 2.119141,-0.835938 2.5875443,2.5875443 0 0 1 -0.677735,-0.65625 2.5875443,2.5875443 0 0 1 -0.103515,-0.164062 2.5875443,2.5875443 0 0 1 -0.339844,-1.117188 2.5875443,2.5875443 0 0 1 -1.5625,0.527344 2.5875443,2.5875443 0 0 1 -0.251953,-0.01172 2.5875443,2.5875443 0 0 1 -1.630859,0.578125 2.5875443,2.5875443 0 0 1 -1.796876,-0.726562 2.5875443,2.5875443 0 0 1 -1.662109,0.892578 1.6666076,1.6666076 0 0 1 -0.212891,0.167969 1.6666076,1.6666076 0 0 1 -1.390624,0.748046 1.6666076,1.6666076 0 0 1 -1.253907,-0.570312 1.6666076,1.6666076 0 0 1 -0.02344,-0.01953 1.6666076,1.6666076 0 0 1 -0.917969,0.27539 1.6666076,1.6666076 0 0 1 -1.4707,-0.886712 A 1.6666076,1.6666076 0 0 1 9.7246094,11.234375 1.6666076,1.6666076 0 0 1 8.0898438,9.8808594 1.6666076,1.6666076 0 0 1 6.4316406,11.392578 1.6666076,1.6666076 0 0 1 4.765625,9.7246094 1.6666076,1.6666076 0 0 1 5.7597656,8.2011719 2.5875443,2.5875443 0 0 1 4.6191406,6.40625 Z m 3.2539063,2.1054688 a 2.5875443,2.5875443 0 0 1 -0.2421875,0.056641 1.6666076,1.6666076 0 0 1 0.4375,0.84375 A 1.6666076,1.6666076 0 0 1 8.2285156,8.8378906 2.5875443,2.5875443 0 0 1 7.8730469,8.5117188 Z"
         transform="scale(0.26458333)" />
    </g>
    <g
       id="g30656"
       transform="translate(-25.047954,2.1887415)">
      <path
         id="path14538-71-6-2-5"
         style="color:#000000;overflow:visible;fill:#d8e8f6;fill-opacity:0.946163;stroke:none;stroke-width:0.0972024;stroke-linejoin:bevel;stroke-opacity:1"
         d="m 31.070088,3.7830782 a 0.48611295,0.48882273 0 0 0 -0.325559,0.1266071 0.82552386,0.83012562 0 0 0 -0.649057,0.8108032 0.82552386,0.83012562 0 0 0 0.145727,0.4707723 0.48611295,0.48882273 0 0 0 -0.05581,0.2268595 0.48611295,0.48882273 0 0 0 0.05116,0.2175579 0.82552386,0.83012562 0 0 0 -0.07079,0.099735 0.82552386,0.83012562 0 0 1 -5.29e-4,0 0.82552386,0.83012562 0 0 0 -0.04186,-0.00156 0.82552386,0.83012562 0 0 0 -0.511599,0.1793171 0.48611295,0.48882273 0 0 0 -0.186034,-0.037207 0.48611295,0.48882273 0 0 0 -0.452167,0.3090252 0.48611295,0.48882273 0 0 0 -0.09612,-0.00982 0.48611295,0.48882273 0 0 0 -0.485756,0.488859 0.48611295,0.48882273 0 0 0 0.485756,0.4888592 0.48611295,0.48882273 0 0 0 0.452171,-0.3095418 0.48611295,0.48882273 0 0 0 0.0181,0.00362 0.82552386,0.83012562 0 0 0 0.775663,0.5472533 0.82552386,0.83012562 0 0 0 0.296106,-0.055294 0.82552386,0.83012562 0 0 0 0.401526,0.1054198 0.82552386,0.83012562 0 0 0 0.57309,-0.2335773 0.82552386,0.83012562 0 0 0 0.573093,0.2335773 0.82552386,0.83012562 0 0 0 0.547254,-0.2092894 0.82552386,0.83012562 0 0 0 0.598929,0.2588988 0.82552386,0.83012562 0 0 0 0.267168,-0.044958 0.82552386,0.83012562 0 0 0 0.530199,0.1943034 0.82552386,0.83012562 0 0 0 0.775147,-0.5457032 0.82552386,0.83012562 0 0 0 0.669727,0.3467489 0.82552386,0.83012562 0 0 0 0.404627,-0.1069702 0.82552386,0.83012562 0 0 0 0.596344,-0.3865396 0.48611295,0.48882273 0 0 0 0.02016,0.00156 0.48611295,0.48882273 0 0 0 0.424264,0.2501141 0.48611295,0.48882273 0 0 0 0.224277,-0.055811 0.48611295,0.48882273 0 0 0 0.224274,0.055811 0.48611295,0.48882273 0 0 0 0.486275,-0.4888592 0.48611295,0.48882273 0 0 0 -0.486275,-0.488859 0.48611295,0.48882273 0 0 0 -0.223758,0.055294 0.48611295,0.48882273 0 0 0 -0.199472,-0.054777 0.48611295,0.48882273 0 0 1 -5.29e-4,0 0.48611295,0.48882273 0 0 0 -0.42323,-0.2495971 0.48611295,0.48882273 0 0 0 -0.109038,0.012401 0.82552386,0.83012562 0 0 0 -0.07803,-0.082682 0.48611295,0.48882273 0 0 0 -0.411345,-0.2289265 0.48611295,0.48882273 0 0 0 -0.09405,0.00982 0.82552386,0.83012562 0 0 0 -0.05529,-0.00206 0.82552386,0.83012562 0 0 0 -0.37052,0.088883 0.82552386,0.83012562 0 0 0 0,-0.0062 0.82552386,0.83012562 0 0 0 -0.825272,-0.8299235 0.82552386,0.83012562 0 0 0 -0.573093,0.2325438 0.82552386,0.83012562 0 0 0 -0.476456,-0.2268595 0.82552386,0.83012562 0 0 0 -0.01085,-0.010853 0.48611295,0.48882273 0 0 1 0,-5.292e-4 A 0.48611295,0.48882273 0 0 0 33.002787,4.4889653 0.82552386,0.83012562 0 0 0 32.465352,4.2889776 0.82552386,0.83012562 0 0 0 31.746532,4.7122075 0.82552386,0.83012562 0 0 0 31.547579,4.1804572 0.48611295,0.48882273 0 0 0 31.070088,3.7830655 Z m 0.570508,1.3441039 a 0.82552386,0.83012562 0 0 0 0,0.011885 0.82552386,0.83012562 0 0 0 -0.0067,-5.291e-4 0.82552386,0.83012562 0 0 0 0.0067,-0.011369 z" />
      <path
         id="path20237"
         style="color:#000000;overflow:visible;fill:#c2dbf1;fill-opacity:0.946163;stroke:none;stroke-width:0.0972024;stroke-linejoin:bevel;stroke-opacity:1"
         d="m 31.070088,3.7830782 a 0.48611295,0.48882273 0 0 0 -0.325559,0.1266071 0.82552386,0.83012562 0 0 0 -0.649057,0.8108032 0.82552386,0.83012562 0 0 0 0.02532,0.1932699 0.68462109,0.68462109 0 0 1 0.401527,-0.1302245 0.68462109,0.68462109 0 0 1 0.113688,0.0093 0.68462109,0.68462109 0 0 1 0.683678,-0.6573242 0.68462109,0.68462109 0 0 1 0.225828,0.039791 0.48611295,0.48882273 0 0 0 -0.475425,-0.3922239 z m 1.395264,0.5059121 a 0.82552386,0.83012562 0 0 0 -0.187068,0.025321 0.68462109,0.68462109 0 0 1 0.287322,0.2723348 0.68462109,0.68462109 0 0 1 0.213423,-0.2299602 0.82552386,0.83012562 0 0 0 -0.313677,-0.067696 z m -2.550231,1.4748455 a 0.82552386,0.83012562 0 0 0 -0.303342,0.1493448 0.48611295,0.48882273 0 0 0 -0.186034,-0.037207 0.48611295,0.48882273 0 0 0 -0.452168,0.3090251 0.48611295,0.48882273 0 0 0 -0.09612,-0.00982 0.48611295,0.48882273 0 0 0 -0.485757,0.488859 0.48611295,0.48882273 0 0 0 0.485757,0.4888593 0.48611295,0.48882273 0 0 0 0.45217,-0.3095419 0.48611295,0.48882273 0 0 0 0.01809,0.00362 0.82552386,0.83012562 0 0 0 0.775663,0.5472533 0.82552386,0.83012562 0 0 0 0.296106,-0.055294 0.82552386,0.83012562 0 0 0 0.401526,0.1054198 0.82552386,0.83012562 0 0 0 0.57309,-0.2335773 0.82552386,0.83012562 0 0 0 0.573093,0.2335773 0.82552386,0.83012562 0 0 0 0.547254,-0.2092894 0.82552386,0.83012562 0 0 0 0.598929,0.2588988 0.82552386,0.83012562 0 0 0 0.267168,-0.044959 0.82552386,0.83012562 0 0 0 0.530199,0.1943034 0.82552386,0.83012562 0 0 0 0.775147,-0.5457031 0.82552386,0.83012562 0 0 0 0.669727,0.3467489 0.82552386,0.83012562 0 0 0 0.404627,-0.1069702 0.82552386,0.83012562 0 0 0 0.596344,-0.3865396 0.48611295,0.48882273 0 0 0 0.02015,0.00155 0.48611295,0.48882273 0 0 0 0.424264,0.250114 0.48611295,0.48882273 0 0 0 0.224277,-0.055811 0.48611295,0.48882273 0 0 0 0.224274,0.055811 0.48611295,0.48882273 0 0 0 0.486275,-0.4888592 0.48611295,0.48882273 0 0 0 -0.486275,-0.488859 0.48611295,0.48882273 0 0 0 -0.223758,0.055294 0.48611295,0.48882273 0 0 0 -0.02222,-0.00878 0.68462109,0.68462109 0 0 1 -0.551387,0.2800861 0.68462109,0.68462109 0 0 1 -0.501777,-0.2191081 0.68462109,0.68462109 0 0 1 -5.18e-4,-5.167e-4 0.68462109,0.68462109 0 0 1 -0.544153,0.2692341 0.68462109,0.68462109 0 0 1 -0.331245,-0.085266 0.68462109,0.68462109 0 0 1 -0.21704,0.035657 A 0.68462109,0.68462109 0 0 1 34.284363,6.2402924 0.68462109,0.68462109 0 0 1 33.928829,6.3513968 0.68462109,0.68462109 0 0 1 33.362457,6.6506032 0.68462109,0.68462109 0 0 1 33.210009,6.63355 0.68462109,0.68462109 0 0 1 32.913903,6.7007293 0.68462109,0.68462109 0 0 1 32.543383,6.5911754 0.68462109,0.68462109 0 0 1 31.917583,6.999936 0.68462109,0.68462109 0 0 1 31.332605,6.6702403 0.68462109,0.68462109 0 0 1 30.821009,6.9002005 0.68462109,0.68462109 0 0 1 30.136297,6.2154877 0.68462109,0.68462109 0 0 1 30.158,6.0470225 0.68462109,0.68462109 0 0 1 29.915121,5.7638358 Z" />
    </g>
  </g>
</svg>
