<?xml version="1.0" encoding="UTF-8" standalone="no"?>
<!-- Created with Inkscape (http://www.inkscape.org/) -->

<svg
   width="160"
   height="160"
   viewBox="0 0 42.333332 42.333332"
   version="1.1"
   id="svg5"
   inkscape:version="1.1.1 (3bf5ae0d25, 2021-09-20)"
   sodipodi:docname="ciel.svg"
   xmlns:inkscape="http://www.inkscape.org/namespaces/inkscape"
   xmlns:sodipodi="http://sodipodi.sourceforge.net/DTD/sodipodi-0.dtd"
   xmlns="http://www.w3.org/2000/svg"
   xmlns:svg="http://www.w3.org/2000/svg">
  <sodipodi:namedview
     id="namedview7"
     pagecolor="#ffffff"
     bordercolor="#666666"
     borderopacity="1.0"
     inkscape:pageshadow="2"
     inkscape:pageopacity="0.0"
     inkscape:pagecheckerboard="0"
     inkscape:document-units="mm"
     showgrid="false"
     units="px"
     height="40px"
     inkscape:zoom="4.5078057"
     inkscape:cx="64.324747"
     inkscape:cy="92.82092"
     inkscape:window-width="1920"
     inkscape:window-height="2041"
     inkscape:window-x="1920"
     inkscape:window-y="36"
     inkscape:window-maximized="0"
     inkscape:current-layer="layer1" />
  <defs
     id="defs2" />
  <g
     inkscape:label="Calque 1"
     inkscape:groupmode="layer"
     id="layer1">
    <path
       id="path14538"
       style="color:#000000;overflow:visible;fill:#d8e8f6;fill-opacity:0.946163;stroke:none;stroke-width:0.114673;stroke-linejoin:bevel;stroke-opacity:1"
       d="m 10.385885,25.835559 a 1.0400054,0.91707872 0 0 0 -0.8770327,0.425323 1.0400054,0.91707872 0 0 0 -0.853106,0.901632 1.0400054,0.91707872 0 0 0 0.146246,0.468258 1.0400054,0.91707872 0 0 0 -0.249111,-0.02683 1.0400054,0.91707872 0 0 0 -0.979898,0.612045 1.0400054,0.91707872 0 0 0 -0.450369,0.75516 1.0400054,0.91707872 0 0 0 1.039828,0.917062 1.0400054,0.91707872 0 0 0 0.08855,-0.0036 1.0400054,0.91707872 0 0 0 0.424205,0.268119 1.0400054,0.91707872 0 0 0 0.955971,0.557482 1.0400054,0.91707872 0 0 0 0.0776,-0.0025 1.0400054,0.91707872 0 0 0 0.4230867,-0.111362 1.0400054,0.91707872 0 0 0 0.90096,0.458866 1.0400054,0.91707872 0 0 0 0.7934,-0.325142 1.0400054,0.91707872 0 0 1 2.24e-4,0 1.0400054,0.91707872 0 0 0 0.513429,-0.574701 1.0400054,0.91707872 0 0 0 0.892463,0.447015 1.0400054,0.91707872 0 0 0 0.748676,-0.28109 1.0400054,0.91707872 0 0 0 0.0275,9.09e-4 1.0400054,0.91707872 0 0 0 0.826271,-0.36092 1.0400054,0.91707872 0 0 0 0.42443,0.0805 1.0400054,0.91707872 0 0 0 1.040051,-0.917061 1.0400054,0.91707872 0 0 0 -1.040051,-0.917062 1.0400054,0.91707872 0 0 0 -0.03287,0.0011 1.0400054,0.91707872 0 0 0 -1.023728,-0.755832 1.0400054,0.91707872 0 0 0 -0.625686,0.185156 1.0400054,0.91707872 0 0 0 0.0054,-0.08766 1.0400054,0.91707872 0 0 0 -1.040082,-0.917063 1.0400054,0.91707872 0 0 0 -0.849305,0.38865 1.0400054,0.91707872 0 0 0 -0.383954,0.151613 1.0400054,0.91707872 0 0 0 0.116953,-0.421074 1.0400054,0.91707872 0 0 0 -1.040052,-0.917061 z" />
    <path
       id="path14538-6"
       style="color:#000000;overflow:visible;fill:#d8e8f6;fill-opacity:0.946163;stroke:none;stroke-width:0.264999;stroke-linejoin:bevel;stroke-opacity:1"
       d="m 26.804729,28.013823 a 1.5481809,1.4675579 0 0 0 -1.541508,1.337903 2.4033642,2.119291 0 0 0 -0.05168,-0.02532 2.4033642,2.119291 0 0 0 -1.835547,-0.750859 2.4033642,2.119291 0 0 0 -2.402954,2.11925 2.4033642,2.119291 0 0 0 0.481108,1.26969 2.4033642,2.119291 0 0 0 -0.519865,-0.05013 2.4033642,2.119291 0 0 0 -2.314071,1.552877 1.5481809,1.4675579 0 0 0 -0.862997,-0.248564 1.5481809,1.4675579 0 0 0 -1.548226,1.467611 1.5481809,1.4675579 0 0 0 0.0021,0.04392 0.82552386,0.83012562 0 0 0 -0.03876,0.250114 0.82552386,0.83012562 0 0 0 0.189653,0.529683 2.4033642,2.119291 0 0 0 -0.12299,0.66611 2.4033642,2.119291 0 0 0 2.402954,2.119766 2.4033642,2.119291 0 0 0 1.014409,-0.19947 2.4033642,2.119291 0 0 0 1.228348,0.298689 2.4033642,2.119291 0 0 0 0.702283,-0.0925 2.4033642,2.119291 0 0 0 1.344104,1.676384 2.4033642,2.119291 0 0 0 0.97255,0.889352 0.82552386,0.83012562 0 0 0 0.818038,0.722952 0.82552386,0.83012562 0 0 0 0.750859,-0.486275 2.4033642,2.119291 0 0 0 0.502812,-0.125574 0.82552386,0.83012562 0 0 0 0.739489,0.461989 0.82552386,0.83012562 0 0 0 0.82579,-0.829923 0.82552386,0.83012562 0 0 0 -0.317294,-0.654225 2.4033642,2.119291 0 0 0 0.151412,-0.34158 1.5481809,1.4675579 0 0 0 0.846461,0.240295 1.5481809,1.4675579 0 0 0 1.538407,-1.311032 2.4033642,2.119291 0 0 0 0.104386,-0.06873 2.4033642,2.119291 0 0 0 1.625224,-0.844907 2.4033642,2.119291 0 0 0 1.056266,0.216006 2.4033642,2.119291 0 0 0 0.725021,-0.09974 2.4033642,2.119291 0 0 0 1.317749,0.348816 2.4033642,2.119291 0 0 0 2.04897,-1.013892 2.4033642,2.119291 0 0 0 0.293522,0.01705 2.4033642,2.119291 0 0 0 1.239718,-0.30489 1.5481809,1.4675579 0 0 0 1.002522,0.350883 1.5481809,1.4675579 0 0 0 1.123963,-0.458887 0.82552386,0.83012562 0 0 0 0.553456,0.214974 0.82552386,0.83012562 0 0 0 0.825272,-0.830441 0.82552386,0.83012562 0 0 0 -0.825272,-0.829923 0.82552386,0.83012562 0 0 0 -0.192239,0.02274 1.5481809,1.4675579 0 0 0 -1.48518,-1.053682 1.5481809,1.4675579 0 0 0 -0.0031,0 2.4033642,2.119291 0 0 0 -2.239139,-1.349272 2.4033642,2.119291 0 0 0 -0.529683,0.05219 0.82552386,0.83012562 0 0 0 0.0098,-0.125574 0.82552386,0.83012562 0 0 0 -0.743623,-0.825789 2.4033642,2.119291 0 0 0 -0.0062,-0.03307 2.4033642,2.119291 0 0 0 0.120406,-0.125574 1.5481809,1.4675579 0 0 0 0.949813,0.309542 1.5481809,1.4675579 0 0 0 1.041797,-0.382922 1.5481809,1.4675579 0 0 0 0.547254,-0.396875 0.82552386,0.83012562 0 0 0 0.752925,0.490925 0.82552386,0.83012562 0 0 0 0.771012,-0.533817 0.82552386,0.83012562 0 0 0 0.574643,0.234611 0.82552386,0.83012562 0 0 0 0.825273,-0.829924 0.82552386,0.83012562 0 0 0 -0.825273,-0.829923 0.82552386,0.83012562 0 0 0 -0.581877,0.241329 0.82552386,0.83012562 0 0 0 -0.813387,-0.68988 0.82552386,0.83012562 0 0 0 -0.565857,0.225825 1.5481809,1.4675579 0 0 0 -1.26969,-0.713134 1.5481809,1.4675579 0 0 0 -1.385962,-0.813904 1.5481809,1.4675579 0 0 0 -1.059884,0.398942 2.4033642,2.119291 0 0 0 -0.851627,-0.137976 2.4033642,2.119291 0 0 0 -2.39882,2.027266 2.4033642,2.119291 0 0 0 -0.840259,-0.133325 2.4033642,2.119291 0 0 0 -0.103353,0.0031 2.4033642,2.119291 0 0 0 -1.5012,-1.246436 0.82552386,0.83012562 0 0 0 0.01757,-0.167948 0.82552386,0.83012562 0 0 0 -0.825273,-0.83044 0.82552386,0.83012562 0 0 0 -0.573608,0.233577 1.5481809,1.4675579 0 0 0 -0.86093,-0.248047 z m -3.694865,5.119068 a 2.4033642,2.119291 0 0 0 0.416513,0.123506 2.4033642,2.119291 0 0 0 -0.0052,0.02377 2.4033642,2.119291 0 0 0 -0.03049,0.142627 2.4033642,2.119291 0 0 0 -0.283704,-0.07906 2.4033642,2.119291 0 0 0 -0.09715,-0.210839 z" />
    <g
       id="g17890"
       style="fill:#d8e8f6;fill-opacity:0.946163;stroke:none">
      <path
         id="path14538-71-6"
         style="color:#000000;overflow:visible;fill:#d8e8f6;fill-opacity:0.946163;stroke:none;stroke-width:0.367379;stroke-linejoin:bevel;stroke-opacity:1"
         d="m 45.955078,29.445312 a 3.1200902,3.1374827 0 0 0 -3.044922,2.462891 3.1200902,3.1374827 0 0 0 -1.097656,-0.203125 3.1200902,3.1374827 0 0 0 -3.121094,3.138672 3.1200902,3.1374827 0 0 0 0.8125,2.107422 3.1200902,3.1374827 0 0 0 -1.367187,2.353516 3.1200902,3.1374827 0 0 0 -0.53125,0.291015 3.1200902,3.1374827 0 0 0 -1.44336,-0.355469 3.1200902,3.1374827 0 0 0 -3.046875,2.455078 3.1200902,3.1374827 0 0 0 -0.451172,1.623047 3.1200902,3.1374827 0 0 0 1.525391,2.695313 3.1200902,3.1374827 0 0 0 -0.01758,0.318359 3.1200902,3.1374827 0 0 0 3.119141,3.136719 3.1200902,3.1374827 0 0 0 0.519531,-0.04297 3.1200902,3.1374827 0 0 0 1.175781,0.232422 3.1200902,3.1374827 0 0 0 1.246094,-0.263672 3.1200902,3.1374827 0 0 0 2.708984,1.582031 3.1200902,3.1374827 0 0 0 0.519532,-0.04492 3.1200902,3.1374827 0 0 0 1.175781,0.232421 3.1200902,3.1374827 0 0 0 2.476562,-1.230468 3.1200902,3.1374827 0 0 0 2.609375,1.419922 3.1200902,3.1374827 0 0 0 2.917969,-2.029297 3.1200902,3.1374827 0 0 0 0.542969,-0.580078 3.1200902,3.1374827 0 0 0 2.164062,1.609375 3.1200902,3.1374827 0 0 0 2.285156,1 3.1200902,3.1374827 0 0 0 2.275391,-0.992188 3.1200902,3.1374827 0 0 0 0.548828,0.05078 3.1200902,3.1374827 0 0 0 2.273438,-0.990234 3.1200902,3.1374827 0 0 0 0.189453,0.214844 3.1200902,3.1374827 0 0 0 3,2.28125 3.1200902,3.1374827 0 0 0 3.042969,-2.451172 3.1200902,3.1374827 0 0 0 0.865234,0.628906 3.1200902,3.1374827 0 0 0 0.146484,0.181641 3.1200902,3.1374827 0 0 0 2.914063,2.017578 3.1200902,3.1374827 0 0 0 3.064453,-2.556641 3.1200902,3.1374827 0 0 0 2.253906,-2.427734 3.1200902,3.1374827 0 0 0 1.273438,0.275391 3.1200902,3.1374827 0 0 0 0.376953,-0.02539 3.1200902,3.1374827 0 0 0 0.376953,0.02539 3.1200902,3.1374827 0 0 0 3.119141,-3.136719 3.1200902,3.1374827 0 0 0 -3.119141,-3.138672 3.1200902,3.1374827 0 0 0 -0.373047,0.02539 3.1200902,3.1374827 0 0 0 -0.380859,-0.02539 3.1200902,3.1374827 0 0 0 -0.589844,0.06055 3.1200902,3.1374827 0 0 0 -2.111328,-1.677735 3.1200902,3.1374827 0 0 0 0.359375,-1.458984 3.1200902,3.1374827 0 0 0 -3.121094,-3.138672 3.1200902,3.1374827 0 0 0 -2.953125,2.132813 3.1200902,3.1374827 0 0 0 -2.884765,-1.94336 3.1200902,3.1374827 0 0 0 -3.119141,3.136719 3.1200902,3.1374827 0 0 0 0.445312,1.613281 3.1200902,3.1374827 0 0 0 -0.03906,0.222656 3.1200902,3.1374827 0 0 0 -1.619141,-0.453124 3.1200902,3.1374827 0 0 0 -0.654297,0.07031 3.1200902,3.1374827 0 0 0 -1.349609,-0.435547 3.1200902,3.1374827 0 0 0 -3.080078,-2.648437 3.1200902,3.1374827 0 0 0 -1.759766,0.546875 3.1200902,3.1374827 0 0 0 -1.240234,-0.636719 3.1200902,3.1374827 0 0 0 0.28125,-1.292969 3.1200902,3.1374827 0 0 0 -3.121094,-3.136719 3.1200902,3.1374827 0 0 0 -0.230469,0.0078 3.1200902,3.1374827 0 0 1 -0.002,0 3.1200902,3.1374827 0 0 0 -2.404297,-1.138672 3.1200902,3.1374827 0 0 0 -0.04883,0.002 3.1200902,3.1374827 0 0 0 -2.398437,-1.130859 3.1200902,3.1374827 0 0 0 -0.0918,0.0039 3.1200902,3.1374827 0 0 0 -1.792969,-0.570313 z"
         transform="scale(0.26458333)" />
    </g>
    <path
       id="path14538-71-6-2-5"
       style="color:#000000;overflow:visible;fill:#d8e8f6;fill-opacity:0.946163;stroke:none;stroke-width:0.367379;stroke-linejoin:bevel;stroke-opacity:1"
       d="m 118.08984,18.681641 a 1.8372773,1.847519 0 0 0 -1.23046,0.478515 3.1200902,3.1374827 0 0 0 -2.45313,3.064453 3.1200902,3.1374827 0 0 0 0.55078,1.779297 1.8372773,1.847519 0 0 0 -0.21094,0.857422 1.8372773,1.847519 0 0 0 0.19336,0.822266 3.1200902,3.1374827 0 0 0 -0.26757,0.376953 3.1200902,3.1374827 0 0 1 -0.002,0 3.1200902,3.1374827 0 0 0 -0.1582,-0.0059 3.1200902,3.1374827 0 0 0 -1.9336,0.677734 1.8372773,1.847519 0 0 0 -0.70312,-0.140625 1.8372773,1.847519 0 0 0 -1.70898,1.167969 1.8372773,1.847519 0 0 0 -0.36329,-0.03711 1.8372773,1.847519 0 0 0 -1.83593,1.847656 1.8372773,1.847519 0 0 0 1.83593,1.847657 1.8372773,1.847519 0 0 0 1.70899,-1.169922 1.8372773,1.847519 0 0 0 0.0684,0.01367 3.1200902,3.1374827 0 0 0 2.93164,2.068359 3.1200902,3.1374827 0 0 0 1.11914,-0.208984 3.1200902,3.1374827 0 0 0 1.51758,0.398437 3.1200902,3.1374827 0 0 0 2.16601,-0.882812 3.1200902,3.1374827 0 0 0 2.16602,0.882812 3.1200902,3.1374827 0 0 0 2.06836,-0.791015 3.1200902,3.1374827 0 0 0 2.26367,0.978515 3.1200902,3.1374827 0 0 0 1.00977,-0.169922 3.1200902,3.1374827 0 0 0 2.0039,0.734375 3.1200902,3.1374827 0 0 0 2.92969,-2.0625 3.1200902,3.1374827 0 0 0 2.53125,1.310547 3.1200902,3.1374827 0 0 0 1.5293,-0.404297 3.1200902,3.1374827 0 0 0 2.2539,-1.460937 1.8372773,1.847519 0 0 0 0.0762,0.0059 1.8372773,1.847519 0 0 0 1.60352,0.945313 1.8372773,1.847519 0 0 0 0.84766,-0.210938 1.8372773,1.847519 0 0 0 0.84765,0.210938 1.8372773,1.847519 0 0 0 1.83789,-1.847657 1.8372773,1.847519 0 0 0 -1.83789,-1.847656 1.8372773,1.847519 0 0 0 -0.8457,0.208985 1.8372773,1.847519 0 0 0 -0.75391,-0.207032 1.8372773,1.847519 0 0 1 -0.002,0 1.8372773,1.847519 0 0 0 -1.59961,-0.943359 1.8372773,1.847519 0 0 0 -0.41211,0.04687 3.1200902,3.1374827 0 0 0 -0.29492,-0.3125 1.8372773,1.847519 0 0 0 -1.55469,-0.865234 1.8372773,1.847519 0 0 0 -0.35547,0.03711 3.1200902,3.1374827 0 0 0 -0.20898,-0.0078 3.1200902,3.1374827 0 0 0 -1.40039,0.335937 3.1200902,3.1374827 0 0 0 0,-0.02344 3.1200902,3.1374827 0 0 0 -3.11914,-3.136719 3.1200902,3.1374827 0 0 0 -2.16602,0.878906 3.1200902,3.1374827 0 0 0 -1.80078,-0.857422 3.1200902,3.1374827 0 0 0 -0.041,-0.04102 1.8372773,1.847519 0 0 1 0,-0.002 1.8372773,1.847519 0 0 0 -1.49609,-1.671875 3.1200902,3.1374827 0 0 0 -2.03125,-0.755859 3.1200902,3.1374827 0 0 0 -2.7168,1.599609 3.1200902,3.1374827 0 0 0 -0.75195,-2.009765 1.8372773,1.847519 0 0 0 -1.80469,-1.501953 z m 2.15625,5.080078 a 3.1200902,3.1374827 0 0 0 0,0.04492 3.1200902,3.1374827 0 0 0 -0.0254,-0.002 3.1200902,3.1374827 0 0 0 0.0254,-0.04297 z"
       transform="scale(0.26458333)" />
    <path
       id="path14538-71-6-2-81"
       style="color:#000000;overflow:visible;fill:#d8e8f6;fill-opacity:0.946163;stroke:none;stroke-width:0.367379;stroke-linejoin:bevel;stroke-opacity:1"
       d="m 94.171875,71.445312 a 3.1200902,3.1374827 0 0 0 -3.121094,3.138672 3.1200902,3.1374827 0 0 0 0.44336,1.607422 3.1200902,3.1374827 0 0 0 -0.210938,0.13086 3.1200902,3.1374827 0 0 0 -1.443359,-0.355469 3.1200902,3.1374827 0 0 0 -3.121094,3.136719 3.1200902,3.1374827 0 0 0 0.0078,0.197265 3.1200902,3.1374827 0 0 0 -0.404296,0.480469 3.1200902,3.1374827 0 0 0 -1.191407,-0.236328 3.1200902,3.1374827 0 0 0 -2.375,1.105469 1.8372773,1.847519 0 0 0 -1.722656,1.84375 1.8372773,1.847519 0 0 0 1.419922,1.798828 3.1200902,3.1374827 0 0 0 2.677734,1.527343 3.1200902,3.1374827 0 0 0 2.576172,-1.36914 3.1200902,3.1374827 0 0 0 1.191407,0.238281 3.1200902,3.1374827 0 0 0 1.394531,-0.332031 3.1200902,3.1374827 0 0 0 2.183593,0.896484 3.1200902,3.1374827 0 0 0 1.574219,-0.429687 3.1200902,3.1374827 0 0 0 1.283203,-0.996094 3.1200902,3.1374827 0 0 0 1.66211,0.484375 3.1200902,3.1374827 0 0 0 2.171875,-0.888672 3.1200902,3.1374827 0 0 0 2.914063,2.019531 3.1200902,3.1374827 0 0 0 0.4707,-0.03711 3.1200902,3.1374827 0 0 0 0.47071,0.03711 3.1200902,3.1374827 0 0 0 1.65429,-0.480468 3.1200902,3.1374827 0 0 0 1.92383,0.667968 3.1200902,3.1374827 0 0 0 1.86328,-0.623047 3.1200902,3.1374827 0 0 0 2.0918,0.8125 3.1200902,3.1374827 0 0 0 1.9043,-0.654296 3.1200902,3.1374827 0 0 0 0.73242,0.08789 3.1200902,3.1374827 0 0 0 2.57226,-1.359375 3.1200902,3.1374827 0 0 0 1.28907,-0.527343 3.1200902,3.1374827 0 0 0 2.54297,1.322265 3.1200902,3.1374827 0 0 0 2.23242,-0.949219 1.8372773,1.847519 0 0 0 1.1582,0.41211 1.8372773,1.847519 0 0 0 0.81836,-0.19336 1.8372773,1.847519 0 0 0 0.12305,0.0059 1.8372773,1.847519 0 0 0 1.0957,-0.367188 1.8372773,1.847519 0 0 0 0.78711,0.179688 1.8372773,1.847519 0 0 0 1.83789,-1.847656 1.8372773,1.847519 0 0 0 -1.83789,-1.847657 1.8372773,1.847519 0 0 0 -1.0957,0.365235 1.8372773,1.847519 0 0 0 -0.78711,-0.177735 1.8372773,1.847519 0 0 0 -0.81446,0.19336 1.8372773,1.847519 0 0 0 -0.12695,-0.0039 1.8372773,1.847519 0 0 0 -0.44531,0.05469 3.1200902,3.1374827 0 0 0 -2.94531,-2.09961 3.1200902,3.1374827 0 0 0 -1.78907,0.56836 3.1200902,3.1374827 0 0 1 0,-0.002 3.1200902,3.1374827 0 0 0 -2.54297,-1.31836 3.1200902,3.1374827 0 0 0 -2.22851,0.94336 3.1200902,3.1374827 0 0 0 -2.30273,-2.361328 3.1200902,3.1374827 0 0 0 -2.81446,-1.785157 3.1200902,3.1374827 0 0 0 -2.77344,1.705078 3.1200902,3.1374827 0 0 0 -0.24023,-0.0098 3.1200902,3.1374827 0 0 0 -0.12109,0.0059 3.1200902,3.1374827 0 0 0 -3.08008,-2.642578 3.1200902,3.1374827 0 0 0 -2.304691,1.023438 3.1200902,3.1374827 0 0 0 -0.708985,-0.08203 3.1200902,3.1374827 0 0 0 -1.408203,0.339844 3.1200902,3.1374827 0 0 0 0.0078,-0.214844 3.1200902,3.1374827 0 0 0 -3.119141,-3.138672 z"
       transform="scale(0.26458333)" />
    <path
       id="path14538-71-6-2-80"
       style="color:#000000;overflow:visible;fill:#d8e8f6;fill-opacity:0.946163;stroke:none;stroke-width:0.367379;stroke-linejoin:bevel;stroke-opacity:1"
       d="M 15.255859,3.078125 A 3.1200902,3.1374827 0 0 0 12.460938,4.8242188 1.8372773,1.847519 0 0 0 10.736328,3.6152344 1.8372773,1.847519 0 0 0 8.8984375,5.4628906 1.8372773,1.847519 0 0 0 9.046875,6.1835938 3.1200902,3.1374827 0 0 0 8.7871094,6.2617188 3.1200902,3.1374827 0 0 0 6.78125,5.5253906 3.1200902,3.1374827 0 0 0 4.125,7.0214844 1.8372773,1.847519 0 0 0 3.6953125,7.7832031 1.8372773,1.847519 0 0 0 3.390625,7.7578125 1.8372773,1.847519 0 0 0 1.5527344,9.6054688 1.8372773,1.847519 0 0 0 2.546875,11.244141 a 1.8372773,1.847519 0 0 0 -0.052734,0.433593 1.8372773,1.847519 0 0 0 1.8378906,1.847657 1.8372773,1.847519 0 0 0 1.8359376,-1.78711 3.1200902,3.1374827 0 0 0 0.6132812,0.0625 3.1200902,3.1374827 0 0 0 0.6914062,-0.07813 3.1200902,3.1374827 0 0 0 -0.044922,0.519532 3.1200902,3.1374827 0 0 0 3.1191404,3.136718 3.1200902,3.1374827 0 0 0 2.787109,-1.730468 3.1200902,3.1374827 0 0 0 1.544922,0.412109 3.1200902,3.1374827 0 0 0 2.09375,-0.810547 3.1200902,3.1374827 0 0 0 1.689453,-0.933594 3.1200902,3.1374827 0 0 0 0.548829,0.05078 3.1200902,3.1374827 0 0 0 0.433593,-0.03125 3.1200902,3.1374827 0 0 0 1.826172,0.595703 A 3.1200902,3.1374827 0 0 0 24.591797,9.7929688 3.1200902,3.1374827 0 0 0 21.470703,6.65625 3.1200902,3.1374827 0 0 0 21.041016,6.6875 3.1200902,3.1374827 0 0 0 19.210938,6.0917969 3.1200902,3.1374827 0 0 0 18.375,6.2089844 3.1200902,3.1374827 0 0 0 15.255859,3.078125 Z"
       transform="scale(0.26458333)" />
    <path
       id="path14538-71-6-2-09"
       style="color:#000000;overflow:visible;fill:#d8e8f6;fill-opacity:0.946163;stroke:none;stroke-width:0.367379;stroke-linejoin:bevel;stroke-opacity:1"
       d="m 15.632812,141.85742 a 1.8372773,1.847519 0 0 0 -1.83789,1.84766 1.8372773,1.847519 0 0 0 0.179687,0.79687 1.8372773,1.847519 0 0 0 -1.685547,1.83985 1.8372773,1.847519 0 0 0 0.113282,0.63867 1.8372773,1.847519 0 0 0 -0.19336,0.18164 3.1200902,3.1374827 0 0 0 -0.166015,0.004 3.1200902,3.1374827 0 0 0 -1.496094,-0.38282 3.1200902,3.1374827 0 0 0 -2.6523438,1.49024 1.8372773,1.847519 0 0 0 -1.6328124,1.83594 1.8372773,1.847519 0 0 0 1.8378906,1.84765 1.8372773,1.847519 0 0 0 0.074219,-0.004 3.1200902,3.1374827 0 0 0 2.3730466,1.10547 3.1200902,3.1374827 0 0 0 0.203125,-0.008 3.1200902,3.1374827 0 0 0 1.492188,0.38477 3.1200902,3.1374827 0 0 0 2.349609,-1.07617 3.1200902,3.1374827 0 0 0 2.169922,0.88671 3.1200902,3.1374827 0 0 0 1.154297,-0.22265 3.1200902,3.1374827 0 0 0 2.425781,1.16406 3.1200902,3.1374827 0 0 0 0.791015,-0.10352 3.1200902,3.1374827 0 0 0 1.65625,0.48047 3.1200902,3.1374827 0 0 0 2.847657,-1.86328 1.8372773,1.847519 0 0 0 0.166015,0.008 1.8372773,1.847519 0 0 0 1.171875,-0.42578 1.8372773,1.847519 0 0 0 0.900391,0.23828 1.8372773,1.847519 0 0 0 1.837891,-1.84765 1.8372773,1.847519 0 0 0 -1.837891,-1.84766 1.8372773,1.847519 0 0 0 -0.646484,0.11914 3.1200902,3.1374827 0 0 0 -3.121094,-3.10351 3.1200902,3.1374827 0 0 0 -2.25,0.96484 1.8372773,1.847519 0 0 0 -1.09961,-0.75781 3.1200902,3.1374827 0 0 0 -1.611328,-1.33594 1.8372773,1.847519 0 0 0 0.01758,-0.25391 1.8372773,1.847519 0 0 0 -1.835937,-1.84765 1.8372773,1.847519 0 0 0 -0.207031,0.0117 1.8372773,1.847519 0 0 0 -1.488282,-0.76563 z"
       transform="scale(0.26458333)" />
  </g>
  <g
     inkscape:label="Copie de Calque 1"
     inkscape:groupmode="layer"
     id="g20245">
    <path
       id="path20229"
       style="color:#000000;overflow:visible;fill:#b4d3ee;fill-opacity:0.946163;stroke:none;stroke-width:0.43341;stroke-linejoin:bevel;stroke-opacity:1"
       d="M 39.253906 97.646484 A 3.9307291 3.4661243 0 0 0 35.939453 99.253906 A 3.9307291 3.4661243 0 0 0 32.714844 102.66211 A 3.9307291 3.4661243 0 0 0 33.267578 104.43164 A 3.9307291 3.4661243 0 0 0 32.326172 104.33008 A 3.9307291 3.4661243 0 0 0 28.623047 106.64258 A 3.9307291 3.4661243 0 0 0 26.919922 109.49805 A 3.9307291 3.4661243 0 0 0 30.849609 112.96289 A 3.9307291 3.4661243 0 0 0 31.185547 112.94922 A 3.9307291 3.4661243 0 0 0 32.789062 113.96289 A 3.9307291 3.4661243 0 0 0 36.400391 116.07031 A 3.9307291 3.4661243 0 0 0 36.695312 116.06055 A 3.9307291 3.4661243 0 0 0 38.292969 115.64062 A 3.9307291 3.4661243 0 0 0 41.699219 117.375 A 3.9307291 3.4661243 0 0 0 44.697266 116.14453 A 3.9307291 3.4661243 0 0 1 44.699219 116.14453 A 3.9307291 3.4661243 0 0 0 46.638672 113.97266 A 3.9307291 3.4661243 0 0 0 50.011719 115.66211 A 3.9307291 3.4661243 0 0 0 52.841797 114.59961 A 3.9307291 3.4661243 0 0 0 52.945312 114.60352 A 3.9307291 3.4661243 0 0 0 56.068359 113.24023 A 3.9307291 3.4661243 0 0 0 57.671875 113.54297 A 3.9307291 3.4661243 0 0 0 61.603516 110.07812 A 3.9307291 3.4661243 0 0 0 61.576172 109.89258 A 2.5875443 2.5875443 0 0 1 61.292969 110.14844 A 2.5875443 2.5875443 0 0 1 58.763672 112.20312 A 2.5875443 2.5875443 0 0 1 58.570312 112.19531 A 2.5875443 2.5875443 0 0 1 57.658203 111.95508 A 2.5875443 2.5875443 0 0 1 55.373047 113.33203 A 2.5875443 2.5875443 0 0 1 52.791016 110.87891 A 2.5875443 2.5875443 0 0 1 52.53125 110.57812 A 2.5875443 2.5875443 0 0 1 51.587891 110.04492 A 2.5875443 2.5875443 0 0 1 51.744141 110.93359 A 2.5875443 2.5875443 0 0 1 49.158203 113.52148 A 2.5875443 2.5875443 0 0 1 46.847656 112.0957 A 1.6666076 1.6666076 0 0 1 45.291016 110.85742 A 2.5875443 2.5875443 0 0 1 44.300781 111.07031 A 2.5875443 2.5875443 0 0 1 41.8125 112.95703 A 2.5875443 2.5875443 0 0 1 39.761719 111.94531 A 2.5875443 2.5875443 0 0 1 39.175781 112.01367 A 2.5875443 2.5875443 0 0 1 36.847656 110.55664 A 1.6666076 1.6666076 0 0 1 36.119141 109.9668 A 2.5875443 2.5875443 0 0 1 35.707031 110.08203 A 2.5875443 2.5875443 0 0 1 33.335938 111.63672 A 2.5875443 2.5875443 0 0 1 30.75 109.05078 A 2.5875443 2.5875443 0 0 1 32.847656 106.51172 A 2.5875443 2.5875443 0 0 1 35.220703 104.95508 A 2.5875443 2.5875443 0 0 1 36.3125 105.19727 A 1.6666076 1.6666076 0 0 1 36.548828 104.94336 A 2.5875443 2.5875443 0 0 1 35.457031 102.83398 A 2.5875443 2.5875443 0 0 1 38.044922 100.24805 A 2.5875443 2.5875443 0 0 1 38.166016 100.25 A 2.5875443 2.5875443 0 0 1 40.074219 99.128906 A 2.5875443 2.5875443 0 0 1 41.435547 98.740234 A 2.5875443 2.5875443 0 0 1 42.212891 98.867188 A 3.9307291 3.4661243 0 0 0 39.253906 97.646484 z "
       transform="scale(0.26458333)" />
    <path
       id="path20231"
       style="color:#000000;overflow:visible;fill:#c8def2;fill-opacity:0.946163;stroke:none;stroke-width:1.00157;stroke-linejoin:bevel;stroke-opacity:1"
       d="M 82.529297 109.94141 A 9.0835812 8.0099187 0 0 0 79.267578 116.01172 A 9.0835812 8.0099187 0 0 0 79.820312 118.61914 A 5.5222102 5.3202148 0 0 1 80 118.60156 A 5.5222102 5.3202148 0 0 1 81.78125 118.88477 A 2.7952697 2.6415127 0 0 1 82.4375 117.86328 A 2.7952697 2.6415127 0 0 1 82.439453 117.83203 A 2.7952697 2.6415127 0 0 1 81.503906 115.86328 A 2.7952697 2.6415127 0 0 1 82.148438 114.17773 A 2.7952697 2.6415127 0 0 1 82.140625 113.98438 A 2.7952697 2.6415127 0 0 1 82.818359 112.26172 A 5.5222102 5.3202148 0 0 1 82.478516 110.43164 A 5.5222102 5.3202148 0 0 1 82.529297 109.94141 z M 139.30273 115.27344 A 5.5222102 5.3202148 0 0 1 138.17969 115.85156 A 5.5222102 5.3202148 0 0 1 134.74414 117.00586 A 5.5222102 5.3202148 0 0 1 132.50586 116.54492 A 2.7952697 2.6415127 0 0 1 129.875 118.56641 A 5.5222102 5.3202148 0 0 1 129.85352 118.74805 A 5.5222102 5.3202148 0 0 1 131.13672 118.60156 A 5.5222102 5.3202148 0 0 1 134.0918 119.42578 A 5.5222102 5.3202148 0 0 1 134.74414 119.38477 A 5.5222102 5.3202148 0 0 1 138.42383 120.73828 A 5.5222102 5.3202148 0 0 1 142.27539 119.22852 A 5.5222102 5.3202148 0 0 1 143.65234 119.41797 A 5.8513924 5.5466755 0 0 0 144.83203 118.42383 A 3.1200902 3.1374827 0 0 0 147.67773 120.2793 A 3.1200902 3.1374827 0 0 0 150.5918 118.26172 A 3.1200902 3.1374827 0 0 0 152.76367 119.14844 A 3.1200902 3.1374827 0 0 0 155.14258 117.9043 A 5.5222102 5.3202148 0 0 1 151.05859 115.64258 A 5.5222102 5.3202148 0 0 1 146.50977 117.94727 A 5.5222102 5.3202148 0 0 1 142.94922 116.68945 A 5.5222102 5.3202148 0 0 1 139.30273 115.27344 z M 75.113281 121.5 A 9.0835812 8.0099187 0 0 0 70.375 126.49023 A 5.8513924 5.5466755 0 0 0 67.113281 125.55078 A 5.8513924 5.5466755 0 0 0 61.261719 131.09766 A 5.8513924 5.5466755 0 0 0 61.269531 131.26367 A 3.1200902 3.1374827 0 0 0 61.123047 132.20898 A 3.1200902 3.1374827 0 0 0 61.839844 134.21094 A 9.0835812 8.0099187 0 0 0 61.375 136.72852 A 9.0835812 8.0099187 0 0 0 70.457031 144.74023 A 9.0835812 8.0099187 0 0 0 74.291016 143.98633 A 9.0835812 8.0099187 0 0 0 78.933594 145.11523 A 9.0835812 8.0099187 0 0 0 81.587891 144.76562 A 9.0835812 8.0099187 0 0 0 86.667969 151.10156 A 9.0835812 8.0099187 0 0 0 90.34375 154.46289 A 3.1200902 3.1374827 0 0 0 93.435547 157.19531 A 3.1200902 3.1374827 0 0 0 96.273438 155.35742 A 9.0835812 8.0099187 0 0 0 98.173828 154.88281 A 3.1200902 3.1374827 0 0 0 100.96875 156.62891 A 3.1200902 3.1374827 0 0 0 104.08984 153.49219 A 3.1200902 3.1374827 0 0 0 102.89062 151.01953 A 9.0835812 8.0099187 0 0 0 103.46289 149.72852 A 5.8513924 5.5466755 0 0 0 106.66211 150.63672 A 5.8513924 5.5466755 0 0 0 112.47656 145.68164 A 9.0835812 8.0099187 0 0 0 112.87109 145.42188 A 9.0835812 8.0099187 0 0 0 119.01367 142.22852 A 9.0835812 8.0099187 0 0 0 123.00586 143.04492 A 9.0835812 8.0099187 0 0 0 125.74609 142.66797 A 9.0835812 8.0099187 0 0 0 130.72656 143.98633 A 9.0835812 8.0099187 0 0 0 138.4707 140.1543 A 9.0835812 8.0099187 0 0 0 139.58008 140.21875 A 9.0835812 8.0099187 0 0 0 144.26562 139.06641 A 5.8513924 5.5466755 0 0 0 148.05469 140.39258 A 5.8513924 5.5466755 0 0 0 152.30273 138.6582 A 3.1200902 3.1374827 0 0 0 154.39453 139.4707 A 3.1200902 3.1374827 0 0 0 157.49219 136.57617 A 5.5222102 5.3202148 0 0 1 154.82422 137.24219 A 5.5222102 5.3202148 0 0 1 149.33398 132.4668 A 5.5222102 5.3202148 0 0 1 146.11719 133.625 A 5.5222102 5.3202148 0 0 1 141.64648 135.83008 A 5.5222102 5.3202148 0 0 1 138.54883 134.91406 A 5.5222102 5.3202148 0 0 1 136.7168 137.37891 A 5.5222102 5.3202148 0 0 1 131.92188 140.06445 A 5.5222102 5.3202148 0 0 1 127.69531 138.16406 A 5.5222102 5.3202148 0 0 1 123.76562 139.75195 A 5.5222102 5.3202148 0 0 1 118.52539 136.10352 A 5.5222102 5.3202148 0 0 1 117.94336 136.28125 A 5.5222102 5.3202148 0 0 1 118.15039 137.72461 A 5.5222102 5.3202148 0 0 1 117.97852 139.03125 A 5.5222102 5.3202148 0 0 1 112.4707 143.98633 A 5.5222102 5.3202148 0 0 1 108.89844 142.71875 A 2.7952697 2.6415127 0 0 1 109 143.42188 A 2.7952697 2.6415127 0 0 1 106.20312 146.0625 A 2.7952697 2.6415127 0 0 1 105.63867 146.00586 A 2.7952697 2.6415127 0 0 1 103.69141 146.75586 A 2.7952697 2.6415127 0 0 1 101.9082 146.14648 A 2.7952697 2.6415127 0 0 1 101.92578 146.44531 A 2.7952697 2.6415127 0 0 1 99.130859 149.08789 A 2.7952697 2.6415127 0 0 1 96.882812 148.01562 A 2.7952697 2.6415127 0 0 1 95.132812 148.59766 A 2.7952697 2.6415127 0 0 1 93.589844 148.1582 A 2.7952697 2.6415127 0 0 1 92.003906 146.95312 A 5.5222102 5.3202148 0 0 1 91.607422 146.9668 A 5.5222102 5.3202148 0 0 1 88.072266 145.73047 A 2.7952697 2.6415127 0 0 1 85.808594 146.82617 A 2.7952697 2.6415127 0 0 1 83.619141 145.82812 A 2.7952697 2.6415127 0 0 1 82.701172 143.86914 A 2.7952697 2.6415127 0 0 1 83.085938 142.53125 A 2.7952697 2.6415127 0 0 1 81.410156 141.125 A 2.7952697 2.6415127 0 0 1 79.431641 138.59766 A 2.7952697 2.6415127 0 0 1 82.226562 135.95703 A 2.7952697 2.6415127 0 0 1 83.621094 136.30859 A 5.5222102 5.3202148 0 0 1 83.261719 134.43164 A 5.5222102 5.3202148 0 0 1 84.128906 131.57422 A 5.5222102 5.3202148 0 0 1 83.705078 130.38867 A 2.7952697 2.6415127 0 0 1 82.671875 130.57617 A 2.7952697 2.6415127 0 0 1 81.880859 130.4668 A 5.5222102 5.3202148 0 0 1 80.160156 133.11914 A 2.7952697 2.6415127 0 0 1 80.882812 134.89258 A 2.7952697 2.6415127 0 0 1 78.4375 137.51172 A 2.7952697 2.6415127 0 0 1 77.507812 138.1543 A 2.7952697 2.6415127 0 0 1 75.808594 138.69922 A 2.7952697 2.6415127 0 0 1 73.236328 137.08789 A 2.7952697 2.6415127 0 0 1 71.880859 137.49805 A 2.7952697 2.6415127 0 0 1 69.296875 139.13867 A 2.7952697 2.6415127 0 0 1 66.5 136.49609 A 2.7952697 2.6415127 0 0 1 66.505859 136.36914 A 2.7952697 2.6415127 0 0 1 66.193359 135.16211 A 2.7952697 2.6415127 0 0 1 67.078125 133.23242 A 2.7952697 2.6415127 0 0 1 66.369141 131.47656 A 2.7952697 2.6415127 0 0 1 69.164062 128.83398 A 2.7952697 2.6415127 0 0 1 69.455078 128.84766 A 2.7952697 2.6415127 0 0 1 71.146484 128.00977 A 5.5222102 5.3202148 0 0 1 74.488281 124.16406 A 5.5222102 5.3202148 0 0 1 74.478516 123.92188 A 5.5222102 5.3202148 0 0 1 75.113281 121.5 z "
       transform="scale(0.26458333)" />
    <g
       id="g20235"
       style="fill:#b7d4ef;fill-opacity:0.946163;stroke:none">
      <path
         id="path20233"
         style="color:#000000;overflow:visible;fill:#b7d4ef;fill-opacity:0.946163;stroke:none;stroke-width:0.367379;stroke-linejoin:bevel;stroke-opacity:1"
         d="m 45.955078,29.445312 a 3.1200902,3.1374827 0 0 0 -3.044922,2.462891 3.1200902,3.1374827 0 0 0 -1.097656,-0.203125 3.1200902,3.1374827 0 0 0 -3.121094,3.138672 3.1200902,3.1374827 0 0 0 0.8125,2.107422 3.1200902,3.1374827 0 0 0 -1.367187,2.353516 3.1200902,3.1374827 0 0 0 -0.53125,0.291015 3.1200902,3.1374827 0 0 0 -1.44336,-0.355469 3.1200902,3.1374827 0 0 0 -3.046875,2.455078 3.1200902,3.1374827 0 0 0 -0.451172,1.623047 3.1200902,3.1374827 0 0 0 1.525391,2.695313 3.1200902,3.1374827 0 0 0 -0.01758,0.318359 3.1200902,3.1374827 0 0 0 3.119141,3.136719 3.1200902,3.1374827 0 0 0 0.519531,-0.04297 3.1200902,3.1374827 0 0 0 1.175781,0.232422 3.1200902,3.1374827 0 0 0 1.246094,-0.263672 3.1200902,3.1374827 0 0 0 2.708984,1.582031 3.1200902,3.1374827 0 0 0 0.519532,-0.04492 3.1200902,3.1374827 0 0 0 1.175781,0.232421 3.1200902,3.1374827 0 0 0 2.476562,-1.230468 3.1200902,3.1374827 0 0 0 2.609375,1.419922 3.1200902,3.1374827 0 0 0 2.917969,-2.029297 3.1200902,3.1374827 0 0 0 0.542969,-0.580078 3.1200902,3.1374827 0 0 0 2.164062,1.609375 3.1200902,3.1374827 0 0 0 2.285156,1 3.1200902,3.1374827 0 0 0 2.275391,-0.992188 3.1200902,3.1374827 0 0 0 0.548828,0.05078 3.1200902,3.1374827 0 0 0 2.273438,-0.990234 3.1200902,3.1374827 0 0 0 0.189453,0.214844 3.1200902,3.1374827 0 0 0 3,2.28125 3.1200902,3.1374827 0 0 0 3.042969,-2.451172 3.1200902,3.1374827 0 0 0 0.865234,0.628906 3.1200902,3.1374827 0 0 0 0.146484,0.181641 3.1200902,3.1374827 0 0 0 2.914063,2.017578 3.1200902,3.1374827 0 0 0 3.064453,-2.556641 3.1200902,3.1374827 0 0 0 2.253906,-2.427734 3.1200902,3.1374827 0 0 0 1.273438,0.275391 3.1200902,3.1374827 0 0 0 0.376953,-0.02539 3.1200902,3.1374827 0 0 0 0.376953,0.02539 3.1200902,3.1374827 0 0 0 3.119141,-3.136719 3.1200902,3.1374827 0 0 0 -3.119141,-3.138672 3.1200902,3.1374827 0 0 0 -0.373047,0.02539 3.1200902,3.1374827 0 0 0 -0.380859,-0.02539 3.1200902,3.1374827 0 0 0 -0.589844,0.06055 3.1200902,3.1374827 0 0 0 -2.111328,-1.677735 3.1200902,3.1374827 0 0 0 0.359375,-1.458984 3.1200902,3.1374827 0 0 0 -3.121094,-3.138672 3.1200902,3.1374827 0 0 0 -2.953125,2.132813 3.1200902,3.1374827 0 0 0 -2.884765,-1.94336 3.1200902,3.1374827 0 0 0 -3.119141,3.136719 3.1200902,3.1374827 0 0 0 0.445312,1.613281 3.1200902,3.1374827 0 0 0 -0.03906,0.222656 3.1200902,3.1374827 0 0 0 -1.619141,-0.453124 3.1200902,3.1374827 0 0 0 -0.654297,0.07031 3.1200902,3.1374827 0 0 0 -1.349609,-0.435547 3.1200902,3.1374827 0 0 0 -3.080078,-2.648437 3.1200902,3.1374827 0 0 0 -1.759766,0.546875 3.1200902,3.1374827 0 0 0 -1.240234,-0.636719 3.1200902,3.1374827 0 0 0 0.28125,-1.292969 3.1200902,3.1374827 0 0 0 -3.121094,-3.136719 3.1200902,3.1374827 0 0 0 -0.230469,0.0078 3.1200902,3.1374827 0 0 1 -0.002,0 3.1200902,3.1374827 0 0 0 -2.404297,-1.138672 3.1200902,3.1374827 0 0 0 -0.04883,0.002 3.1200902,3.1374827 0 0 0 -2.398437,-1.130859 3.1200902,3.1374827 0 0 0 -0.0918,0.0039 3.1200902,3.1374827 0 0 0 -1.792969,-0.570313 z"
         transform="scale(0.26458333)" />
    </g>
    <path
       id="path20237"
       style="color:#000000;overflow:visible;fill:#c2dbf1;fill-opacity:0.946163;stroke:none;stroke-width:0.367379;stroke-linejoin:bevel;stroke-opacity:1"
       d="M 118.08984 18.681641 A 1.8372773 1.847519 0 0 0 116.85938 19.160156 A 3.1200902 3.1374827 0 0 0 114.40625 22.224609 A 3.1200902 3.1374827 0 0 0 114.50195 22.955078 A 2.5875443 2.5875443 0 0 1 116.01953 22.462891 A 2.5875443 2.5875443 0 0 1 116.44922 22.498047 A 2.5875443 2.5875443 0 0 1 119.0332 20.013672 A 2.5875443 2.5875443 0 0 1 119.88672 20.164062 A 1.8372773 1.847519 0 0 0 118.08984 18.681641 z M 123.36328 20.59375 A 3.1200902 3.1374827 0 0 0 122.65625 20.689453 A 2.5875443 2.5875443 0 0 1 123.74219 21.71875 A 2.5875443 2.5875443 0 0 1 124.54883 20.849609 A 3.1200902 3.1374827 0 0 0 123.36328 20.59375 z M 113.72461 26.167969 A 3.1200902 3.1374827 0 0 0 112.57812 26.732422 A 1.8372773 1.847519 0 0 0 111.875 26.591797 A 1.8372773 1.847519 0 0 0 110.16602 27.759766 A 1.8372773 1.847519 0 0 0 109.80273 27.722656 A 1.8372773 1.847519 0 0 0 107.9668 29.570312 A 1.8372773 1.847519 0 0 0 109.80273 31.417969 A 1.8372773 1.847519 0 0 0 111.51172 30.248047 A 1.8372773 1.847519 0 0 0 111.58008 30.261719 A 3.1200902 3.1374827 0 0 0 114.51172 32.330078 A 3.1200902 3.1374827 0 0 0 115.63086 32.121094 A 3.1200902 3.1374827 0 0 0 117.14844 32.519531 A 3.1200902 3.1374827 0 0 0 119.31445 31.636719 A 3.1200902 3.1374827 0 0 0 121.48047 32.519531 A 3.1200902 3.1374827 0 0 0 123.54883 31.728516 A 3.1200902 3.1374827 0 0 0 125.8125 32.707031 A 3.1200902 3.1374827 0 0 0 126.82227 32.537109 A 3.1200902 3.1374827 0 0 0 128.82617 33.271484 A 3.1200902 3.1374827 0 0 0 131.75586 31.208984 A 3.1200902 3.1374827 0 0 0 134.28711 32.519531 A 3.1200902 3.1374827 0 0 0 135.81641 32.115234 A 3.1200902 3.1374827 0 0 0 138.07031 30.654297 A 1.8372773 1.847519 0 0 0 138.14648 30.660156 A 1.8372773 1.847519 0 0 0 139.75 31.605469 A 1.8372773 1.847519 0 0 0 140.59766 31.394531 A 1.8372773 1.847519 0 0 0 141.44531 31.605469 A 1.8372773 1.847519 0 0 0 143.2832 29.757812 A 1.8372773 1.847519 0 0 0 141.44531 27.910156 A 1.8372773 1.847519 0 0 0 140.59961 28.119141 A 1.8372773 1.847519 0 0 0 140.51562 28.085938 A 2.5875443 2.5875443 0 0 1 138.43164 29.144531 A 2.5875443 2.5875443 0 0 1 136.53516 28.316406 A 2.5875443 2.5875443 0 0 1 136.5332 28.314453 A 2.5875443 2.5875443 0 0 1 134.47656 29.332031 A 2.5875443 2.5875443 0 0 1 133.22461 29.009766 A 2.5875443 2.5875443 0 0 1 132.4043 29.144531 A 2.5875443 2.5875443 0 0 1 130.23828 27.96875 A 2.5875443 2.5875443 0 0 1 128.89453 28.388672 A 2.5875443 2.5875443 0 0 1 126.75391 29.519531 A 2.5875443 2.5875443 0 0 1 126.17773 29.455078 A 2.5875443 2.5875443 0 0 1 125.05859 29.708984 A 2.5875443 2.5875443 0 0 1 123.6582 29.294922 A 2.5875443 2.5875443 0 0 1 121.29297 30.839844 A 2.5875443 2.5875443 0 0 1 119.08203 29.59375 A 2.5875443 2.5875443 0 0 1 117.14844 30.462891 A 2.5875443 2.5875443 0 0 1 114.56055 27.875 A 2.5875443 2.5875443 0 0 1 114.64258 27.238281 A 2.5875443 2.5875443 0 0 1 113.72461 26.167969 z "
       transform="scale(0.26458333)" />
    <path
       id="path20239"
       style="color:#000000;overflow:visible;fill:#c6ddf2;fill-opacity:0.946163;stroke:none;stroke-width:0.367379;stroke-linejoin:bevel;stroke-opacity:1"
       d="M 94.171875 71.445312 A 3.1200902 3.1374827 0 0 0 91.626953 72.775391 A 1.6666076 1.6666076 0 0 1 92.078125 72.685547 A 1.6666076 1.6666076 0 0 1 93.736328 74.181641 A 1.6666076 1.6666076 0 0 0 93.736328 74.183594 A 2.5875443 2.5875443 0 0 1 94.052734 73.697266 A 2.5875443 2.5875443 0 0 1 95.478516 71.736328 A 3.1200902 3.1374827 0 0 0 94.171875 71.445312 z M 93.46875 75.269531 A 1.6666076 1.6666076 0 0 1 92.078125 76.019531 A 1.6666076 1.6666076 0 0 1 91.953125 76.015625 A 1.6666076 1.6666076 0 0 1 91.707031 75.978516 A 1.6666076 1.6666076 0 0 1 91.324219 75.794922 A 3.1200902 3.1374827 0 0 0 91.494141 76.191406 A 3.1200902 3.1374827 0 0 0 91.283203 76.322266 A 3.1200902 3.1374827 0 0 0 89.839844 75.966797 A 3.1200902 3.1374827 0 0 0 88.308594 76.410156 A 1.6666076 1.6666076 0 0 1 88.882812 77.646484 A 1.6666076 1.6666076 0 0 1 88.841797 78.009766 A 1.6666076 1.6666076 0 0 1 89.824219 79.529297 A 1.6666076 1.6666076 0 0 1 88.15625 81.195312 A 1.6666076 1.6666076 0 0 1 86.498047 79.572266 A 3.1200902 3.1374827 0 0 0 86.322266 79.78125 A 3.1200902 3.1374827 0 0 0 85.130859 79.544922 A 3.1200902 3.1374827 0 0 0 82.755859 80.650391 A 1.8372773 1.847519 0 0 0 81.033203 82.494141 A 1.8372773 1.847519 0 0 0 82.453125 84.292969 A 3.1200902 3.1374827 0 0 0 85.130859 85.820312 A 3.1200902 3.1374827 0 0 0 87.707031 84.451172 A 3.1200902 3.1374827 0 0 0 88.898438 84.689453 A 3.1200902 3.1374827 0 0 0 90.292969 84.357422 A 3.1200902 3.1374827 0 0 0 92.476562 85.253906 A 3.1200902 3.1374827 0 0 0 94.050781 84.824219 A 3.1200902 3.1374827 0 0 0 95.333984 83.828125 A 3.1200902 3.1374827 0 0 0 96.996094 84.3125 A 3.1200902 3.1374827 0 0 0 99.167969 83.423828 A 3.1200902 3.1374827 0 0 0 102.08203 85.443359 A 3.1200902 3.1374827 0 0 0 102.55273 85.40625 A 3.1200902 3.1374827 0 0 0 103.02344 85.443359 A 3.1200902 3.1374827 0 0 0 104.67773 84.962891 A 3.1200902 3.1374827 0 0 0 106.60156 85.630859 A 3.1200902 3.1374827 0 0 0 108.46484 85.007812 A 3.1200902 3.1374827 0 0 0 110.55664 85.820312 A 3.1200902 3.1374827 0 0 0 112.46094 85.166016 A 3.1200902 3.1374827 0 0 0 113.19336 85.253906 A 3.1200902 3.1374827 0 0 0 115.76562 83.894531 A 3.1200902 3.1374827 0 0 0 117.05469 83.367188 A 3.1200902 3.1374827 0 0 0 119.59766 84.689453 A 3.1200902 3.1374827 0 0 0 121.83008 83.740234 A 1.8372773 1.847519 0 0 0 122.98828 84.152344 A 1.8372773 1.847519 0 0 0 123.80664 83.958984 A 1.8372773 1.847519 0 0 0 123.92969 83.964844 A 1.8372773 1.847519 0 0 0 125.02539 83.597656 A 1.8372773 1.847519 0 0 0 125.8125 83.777344 A 1.8372773 1.847519 0 0 0 127.65039 81.929688 A 1.8372773 1.847519 0 0 0 127.63867 81.783203 A 2.5875443 2.5875443 0 0 1 127.13086 81.878906 A 2.5875443 2.5875443 0 0 1 125.04883 80.826172 A 1.6666076 1.6666076 0 0 1 124.48828 81.021484 A 1.6666076 1.6666076 0 0 1 124.49023 81.097656 A 1.6666076 1.6666076 0 0 1 122.82422 82.763672 A 1.6666076 1.6666076 0 0 1 122.50977 82.734375 A 1.6666076 1.6666076 0 0 1 122.19531 82.763672 A 1.6666076 1.6666076 0 0 1 120.67773 81.78125 A 2.5875443 2.5875443 0 0 1 119.97461 81.878906 A 2.5875443 2.5875443 0 0 1 119.43555 81.822266 A 1.6666076 1.6666076 0 0 1 118.27539 82.294922 A 1.6666076 1.6666076 0 0 1 117.07812 81.787109 A 2.5875443 2.5875443 0 0 1 116.39453 81.878906 A 2.5875443 2.5875443 0 0 1 115.25195 81.611328 A 2.5875443 2.5875443 0 0 1 113.19336 82.632812 A 2.5875443 2.5875443 0 0 1 110.60547 80.044922 A 2.5875443 2.5875443 0 0 1 110.61133 79.896484 A 2.5875443 2.5875443 0 0 1 110.56836 79.78125 A 2.5875443 2.5875443 0 0 1 110.50977 79.771484 A 2.5875443 2.5875443 0 0 1 109.61914 80.488281 A 2.5875443 2.5875443 0 0 1 107.16602 82.255859 A 2.5875443 2.5875443 0 0 1 106.30273 82.105469 A 2.5875443 2.5875443 0 0 1 104.3418 83.009766 A 2.5875443 2.5875443 0 0 1 104.02148 82.988281 A 2.5875443 2.5875443 0 0 1 102.64648 83.386719 A 2.5875443 2.5875443 0 0 1 100.05859 80.798828 A 2.5875443 2.5875443 0 0 1 100.08594 80.423828 A 2.5875443 2.5875443 0 0 1 98.314453 81.126953 A 2.5875443 2.5875443 0 0 1 96.867188 80.681641 A 2.5875443 2.5875443 0 0 1 94.359375 82.632812 A 2.5875443 2.5875443 0 0 1 92.316406 81.632812 A 2.5875443 2.5875443 0 0 1 90.904297 79.904297 A 1.6666076 1.6666076 0 0 1 90.568359 78.902344 A 1.6666076 1.6666076 0 0 1 91.765625 77.302734 A 2.5875443 2.5875443 0 0 1 93.417969 76.705078 A 2.5875443 2.5875443 0 0 1 93.748047 76.726562 A 2.5875443 2.5875443 0 0 1 93.791016 76.585938 A 2.5875443 2.5875443 0 0 1 93.466797 75.335938 A 2.5875443 2.5875443 0 0 1 93.46875 75.269531 z M 106.10547 77.152344 A 2.5875443 2.5875443 0 0 1 105.98047 77.201172 A 2.5875443 2.5875443 0 0 1 105.96289 77.380859 A 2.5875443 2.5875443 0 0 1 106.03125 77.345703 A 2.5875443 2.5875443 0 0 1 106.10547 77.152344 z "
       transform="scale(0.26458333)" />
    <path
       id="path20241"
       style="color:#000000;overflow:visible;fill:#c4dcf1;fill-opacity:0.946163;stroke:none;stroke-width:0.367379;stroke-linejoin:bevel;stroke-opacity:1"
       d="M 4.6191406 6.40625 A 3.1200902 3.1374827 0 0 0 4.125 7.0214844 A 1.8372773 1.847519 0 0 0 3.6953125 7.7832031 A 1.8372773 1.847519 0 0 0 3.390625 7.7578125 A 1.8372773 1.847519 0 0 0 1.5527344 9.6054688 A 1.8372773 1.847519 0 0 0 2.546875 11.244141 A 1.8372773 1.847519 0 0 0 2.4941406 11.677734 A 1.8372773 1.847519 0 0 0 4.3320312 13.525391 A 1.8372773 1.847519 0 0 0 6.1679688 11.738281 A 3.1200902 3.1374827 0 0 0 6.78125 11.800781 A 3.1200902 3.1374827 0 0 0 7.4726562 11.722656 A 3.1200902 3.1374827 0 0 0 7.4277344 12.242188 A 3.1200902 3.1374827 0 0 0 10.546875 15.378906 A 3.1200902 3.1374827 0 0 0 13.333984 13.648438 A 3.1200902 3.1374827 0 0 0 14.878906 14.060547 A 3.1200902 3.1374827 0 0 0 16.972656 13.25 A 3.1200902 3.1374827 0 0 0 18.662109 12.316406 A 3.1200902 3.1374827 0 0 0 19.210938 12.367188 A 3.1200902 3.1374827 0 0 0 19.644531 12.335938 A 3.1200902 3.1374827 0 0 0 21.470703 12.931641 A 3.1200902 3.1374827 0 0 0 23.589844 12.095703 A 2.5875443 2.5875443 0 0 1 22.912109 11.439453 A 2.5875443 2.5875443 0 0 1 22.808594 11.275391 A 2.5875443 2.5875443 0 0 1 22.46875 10.158203 A 2.5875443 2.5875443 0 0 1 20.90625 10.685547 A 2.5875443 2.5875443 0 0 1 20.654297 10.673828 A 2.5875443 2.5875443 0 0 1 19.023438 11.251953 A 2.5875443 2.5875443 0 0 1 17.226562 10.525391 A 2.5875443 2.5875443 0 0 1 15.564453 11.417969 A 1.6666076 1.6666076 0 0 1 15.351562 11.585938 A 1.6666076 1.6666076 0 0 1 13.960938 12.333984 A 1.6666076 1.6666076 0 0 1 12.707031 11.763672 A 1.6666076 1.6666076 0 0 1 12.683594 11.744141 A 1.6666076 1.6666076 0 0 1 11.765625 12.019531 A 1.6666076 1.6666076 0 0 1 10.294922 11.132812 A 1.6666076 1.6666076 0 0 1 9.7246094 11.234375 A 1.6666076 1.6666076 0 0 1 8.0898438 9.8808594 A 1.6666076 1.6666076 0 0 1 6.4316406 11.392578 A 1.6666076 1.6666076 0 0 1 4.765625 9.7246094 A 1.6666076 1.6666076 0 0 1 5.7597656 8.2011719 A 2.5875443 2.5875443 0 0 1 4.6191406 6.40625 z M 7.8730469 8.5117188 A 2.5875443 2.5875443 0 0 1 7.6308594 8.5683594 A 1.6666076 1.6666076 0 0 1 8.0683594 9.4121094 A 1.6666076 1.6666076 0 0 1 8.2285156 8.8378906 A 2.5875443 2.5875443 0 0 1 7.8730469 8.5117188 z "
       transform="scale(0.26458333)" />
    <path
       id="path20243"
       style="color:#000000;overflow:visible;fill:#c4dcf1;fill-opacity:0.946163;stroke:none;stroke-width:0.367379;stroke-linejoin:bevel;stroke-opacity:1"
       d="M 15.632812 141.85742 A 1.8372773 1.847519 0 0 0 13.794922 143.70508 A 1.8372773 1.847519 0 0 0 13.974609 144.50195 A 1.8372773 1.847519 0 0 0 12.289062 146.3418 A 1.8372773 1.847519 0 0 0 12.382812 146.9043 A 1.6666076 1.6666076 0 0 1 13.765625 147.89062 A 1.6666076 1.6666076 0 0 1 13.705078 147.45117 A 1.6666076 1.6666076 0 0 1 14.804688 145.88672 A 1.6666076 1.6666076 0 0 1 14.804688 145.88281 A 1.6666076 1.6666076 0 0 1 16.125 144.25391 A 1.6666076 1.6666076 0 0 1 15.431641 142.90234 A 1.6666076 1.6666076 0 0 1 15.791016 141.88281 A 1.8372773 1.847519 0 0 0 15.632812 141.85742 z M 17.804688 144.41211 A 1.6666076 1.6666076 0 0 1 17.46875 144.52734 A 1.6666076 1.6666076 0 0 1 17.447266 144.53125 A 1.6666076 1.6666076 0 0 1 17.755859 144.82227 A 1.6666076 1.6666076 0 0 1 18.371094 145.27734 A 2.5875443 2.5875443 0 0 1 19.636719 145.78125 A 2.5875443 2.5875443 0 0 1 19.636719 145.77734 A 2.5875443 2.5875443 0 0 1 19.753906 145.01758 A 3.1200902 3.1374827 0 0 0 19.146484 144.71289 A 1.8372773 1.847519 0 0 0 19.164062 144.45898 A 1.8372773 1.847519 0 0 0 19.164062 144.45312 A 1.6666076 1.6666076 0 0 1 19.152344 144.43945 A 1.6666076 1.6666076 0 0 1 18.509766 144.56836 A 1.6666076 1.6666076 0 0 1 17.804688 144.41211 z M 10.546875 146.7832 A 3.1200902 3.1374827 0 0 0 9.3417969 147.03125 A 1.6666076 1.6666076 0 0 1 10.539062 148.62305 A 1.6666076 1.6666076 0 0 1 8.8730469 150.28906 A 1.6666076 1.6666076 0 0 1 7.2070312 148.62305 A 1.6666076 1.6666076 0 0 1 7.2265625 148.50391 A 1.8372773 1.847519 0 0 0 6.2617188 150.10938 A 1.8372773 1.847519 0 0 0 8.0996094 151.95703 A 1.8372773 1.847519 0 0 0 8.1738281 151.95312 A 3.1200902 3.1374827 0 0 0 10.546875 153.05859 A 3.1200902 3.1374827 0 0 0 10.75 153.05078 A 3.1200902 3.1374827 0 0 0 12.242188 153.43555 A 3.1200902 3.1374827 0 0 0 14.591797 152.35938 A 3.1200902 3.1374827 0 0 0 16.761719 153.24609 A 3.1200902 3.1374827 0 0 0 17.916016 153.02344 A 3.1200902 3.1374827 0 0 0 20.341797 154.1875 A 3.1200902 3.1374827 0 0 0 21.132812 154.08398 A 3.1200902 3.1374827 0 0 0 22.789062 154.56445 A 3.1200902 3.1374827 0 0 0 25.636719 152.70117 A 1.8372773 1.847519 0 0 0 25.802734 152.70898 A 1.8372773 1.847519 0 0 0 26.974609 152.2832 A 1.8372773 1.847519 0 0 0 27.875 152.52148 A 1.8372773 1.847519 0 0 0 29.712891 150.67383 A 1.8372773 1.847519 0 0 0 29.255859 149.45703 A 1.6666076 1.6666076 0 0 1 27.607422 151 A 1.6666076 1.6666076 0 0 1 27.451172 150.99219 A 1.6666076 1.6666076 0 0 1 27.294922 151 A 1.6666076 1.6666076 0 0 1 25.726562 149.89453 A 1.6666076 1.6666076 0 0 1 24.15625 151 A 1.6666076 1.6666076 0 0 1 23.058594 150.58594 A 1.6666076 1.6666076 0 0 1 21.960938 151 A 1.6666076 1.6666076 0 0 1 20.333984 149.69336 A 1.6666076 1.6666076 0 0 1 20.228516 149.71484 A 2.5875443 2.5875443 0 0 1 17.892578 151.18945 A 2.5875443 2.5875443 0 0 1 15.357422 149.11719 A 1.6666076 1.6666076 0 0 1 13.845703 148.11523 A 1.6666076 1.6666076 0 0 1 13.888672 148.3418 A 1.6666076 1.6666076 0 0 1 14.214844 149.33398 A 1.6666076 1.6666076 0 0 1 12.548828 151 A 1.6666076 1.6666076 0 0 1 10.896484 149.53906 A 1.6666076 1.6666076 0 0 1 10.568359 148.54883 A 1.6666076 1.6666076 0 0 1 11.658203 146.99609 A 3.1200902 3.1374827 0 0 0 10.546875 146.7832 z M 24.099609 147.55859 A 2.5875443 2.5875443 0 0 1 23.980469 147.67773 A 1.6666076 1.6666076 0 0 1 24.078125 147.66992 A 1.6666076 1.6666076 0 0 1 24.099609 147.55859 z "
       transform="scale(0.26458333)" />
    <path
       id="path27721"
       style="color:#000000;overflow:visible;fill:#deedf8;fill-opacity:0.946163;stroke:none;stroke-width:0.264999;stroke-linejoin:bevel;stroke-opacity:1"
       d="m 12.535152,7.6568968 c -0.262454,1.386e-4 -0.505631,0.1260414 -0.640788,0.3317627 -0.02216,-0.00194 -0.0444,-0.00297 -0.06666,-0.0031 -0.4131,1.394e-4 -0.747871,0.3064538 -0.747758,0.6841958 3e-5,0.016726 7.3e-4,0.033446 0.0021,0.050126 -0.173943,0.1298762 -0.274874,0.3243389 -0.274918,0.5296834 5.5e-5,0.050065 0.0061,0.099974 0.01809,0.1488281 -0.195656,0.128291 -0.311823,0.3348529 -0.312126,0.5550051 2e-4,0.076745 0.01452,0.1529111 0.04237,0.2253091 9.31e-4,0.01347 0.0023,0.02691 0.0041,0.04031 -0.0043,0.02895 -0.0065,0.05812 -0.0067,0.08733 -10e-7,7e-4 -10e-7,0.0014 0,0.0021 -0.02506,0.02376 -0.0482,0.04915 -0.06925,0.07596 -0.168342,0.129896 -0.265518,0.321033 -0.265617,0.522449 10e-5,0.0374 0.0036,0.07474 0.01033,0.111621 -0.0074,0.03839 -0.01121,0.07729 -0.01137,0.116272 9.7e-5,0.01586 7.97e-4,0.03172 0.0021,0.04754 -0.133067,0.04441 -0.2210878,0.15649 -0.221175,0.281637 1.57e-5,0.08531 0.041139,0.166614 0.113172,0.223759 -0.05455,0.03109 -0.09792,0.07518 -0.1250573,0.127124 -0.064727,-0.0606 -0.1550464,-0.09501 -0.2495973,-0.09508 -0.1896129,-1.52e-4 -0.3433541,0.135066 -0.3431315,0.30179 1.019e-4,0.166523 0.1537479,0.301426 0.3431315,0.301274 0.1336712,-7.1e-5 0.2551049,-0.06845 0.3110916,-0.175183 0.06473,0.0606 0.155047,0.09501 0.249598,0.09508 0.08406,-6.4e-5 0.165161,-0.02728 0.227893,-0.07648 0.139511,0.123598 0.32613,0.192723 0.520381,0.192754 0.04509,-2.53e-4 0.09006,-0.0042 0.134359,-0.01189 0.105907,0.0501 0.223376,0.07632 0.342615,0.07648 0.01552,-9.2e-5 0.03103,-6.26e-4 0.04651,-0.0016 0.0105,5.36e-4 0.02101,8.69e-4 0.03152,0.001 0.02596,0.05191 0.06805,0.09633 0.12144,0.128158 0.07373,0.315451 0.378452,0.540925 0.731221,0.541052 0.4131,-1.39e-4 0.747871,-0.306454 0.747758,-0.684196 -7e-5,-0.01621 -7.71e-4,-0.03242 -0.0021,-0.04858 0.140569,0.177396 0.365556,0.282492 0.605131,0.28267 0.291851,-1.53e-4 0.556955,-0.155503 0.679028,-0.397908 0.03082,0.004 0.06189,0.0062 0.09302,0.0067 -0.0043,0.02912 -0.0065,0.05846 -0.0067,0.08785 -1.13e-4,0.377742 0.334658,0.684057 0.747758,0.684196 0.413302,1.21e-4 0.748387,-0.30627 0.748274,-0.684196 -1.64e-4,-0.08061 -0.01591,-0.160562 -0.04651,-0.236161 h 5.29e-4 c 0.148069,-0.04186 0.278262,-0.124745 0.372587,-0.237195 0.04706,-6.11e-4 0.09395,-0.0053 0.140043,-0.01395 0.141923,0.15596 0.352241,0.246258 0.574125,0.246496 0.04666,-1.6e-4 0.0932,-0.0043 0.13901,-0.0124 0.07565,0.02308 0.154859,0.03494 0.234611,0.03514 0.02885,-2.1e-4 0.05767,-0.0019 0.0863,-0.0052 0.01774,0.03029 0.03795,0.05931 0.06046,0.08682 -0.0044,0.02963 -0.0066,0.0595 -0.0067,0.0894 1.99e-4,0.377725 0.335194,0.683801 0.748275,0.683679 0.143754,-1.62e-4 0.284413,-0.0382 0.405143,-0.109554 0.07051,0.01974 0.14382,0.02984 0.217558,0.02997 0.222612,-7.2e-5 0.433622,-0.0908 0.575675,-0.24753 0.168706,-0.0074 0.329713,-0.06676 0.45682,-0.168465 0.08813,0.03211 0.182124,0.04859 0.276986,0.04858 0.252162,-2.14e-4 0.487237,-0.116586 0.625285,-0.309542 0.03248,0.0088 0.06626,0.01336 0.100252,0.01344 0.03091,2.5e-5 0.06168,-0.0036 0.09147,-0.01085 0.03107,0.0079 0.06325,0.01191 0.0956,0.01189 0.134268,-1.72e-4 0.256063,-0.06925 0.311609,-0.176734 0.0076,2.82e-4 0.01516,4.58e-4 0.02274,5.29e-4 0.110055,-2.6e-5 0.218747,-0.02226 0.318326,-0.06511 l 5.3e-4,5.29e-4 c 0.101242,0.04457 0.212164,0.06771 0.324528,0.0677 0.413081,1.21e-4 0.748075,-0.305955 0.748274,-0.683679 1.13e-4,-0.377926 -0.334972,-0.684317 -0.748274,-0.684196 -0.109881,9.6e-5 -0.218389,0.02233 -0.31781,0.06511 l -5.3e-4,-5.3e-4 c -0.101399,-0.04464 -0.212506,-0.06778 -0.325044,-0.0677 -0.178476,3.11e-4 -0.350948,0.05896 -0.486276,0.165365 -0.0062,-4.04e-4 -0.0124,-7.37e-4 -0.0186,-10e-4 -0.05752,-0.09465 -0.167937,-0.155266 -0.289904,-0.159163 -0.002,-0.0062 -0.004,-0.01243 -0.0062,-0.0186 0.132292,-0.127099 0.20611,-0.295825 0.206189,-0.471289 -1.99e-4,-0.3777249 -0.335194,-0.6838011 -0.748275,-0.6836794 -0.0012,-2.6e-6 -0.0024,-2.6e-6 -0.0036,0 C 20.167467,9.3157498 20.034623,9.1353935 19.839179,9.0304111 19.701515,8.915774 19.522045,8.8522039 19.335851,8.8521275 c -0.181013,2.098e-4 -0.355802,0.060431 -0.49196,0.1694987 -0.08796,-0.032046 -0.181781,-0.04853 -0.276469,-0.048576 -0.208405,1.059e-4 -0.407314,0.079707 -0.548804,0.219625 -0.05179,-0.010257 -0.104623,-0.015454 -0.157613,-0.015502 -0.331014,1.457e-4 -0.622563,0.1992063 -0.716752,0.4893757 -0.155798,0.084832 -0.272594,0.2185231 -0.328662,0.3762051 -0.02098,-0.01359 -0.04271,-0.02618 -0.06511,-0.03772 0.04901,-0.092825 0.07445,-0.1945784 0.07441,-0.2976567 1.13e-4,-0.377742 -0.334658,-0.6840564 -0.747758,-0.6841958 -0.04526,2.224e-4 -0.0904,0.0042 -0.134876,0.011885 -0.0912,-0.050073 -0.193026,-0.081785 -0.29869,-0.093018 -0.03086,-0.3558612 -0.355814,-0.6301808 -0.746207,-0.6299356 -0.165326,7.5e-5 -0.325967,0.05023 -0.45682,0.1426268 -0.02285,-0.0053 -0.04596,-0.00961 -0.06925,-0.01292 -0.09445,-0.2901324 -0.38622,-0.4889905 -0.717269,-0.488859 -0.153501,1.206e-4 -0.303246,0.04342 -0.428915,0.1240234 -0.116332,-0.2543922 -0.388333,-0.4200379 -0.68988,-0.4201295 z m 0.573608,2.9600262 c -0.0015,0.01031 -0.0027,0.02065 -0.0036,0.03101 -0.0012,-3e-6 -0.0024,-3e-6 -0.0036,0 -0.0033,1.57e-4 -0.0065,3.33e-4 -0.0098,5.29e-4 -0.0015,-0.0043 -0.0031,-0.0086 -0.0047,-0.01292 0.0074,-0.0061 0.0146,-0.01227 0.0217,-0.0186 z m 1.490866,0.0708 c 0.01394,0.01734 0.02877,0.03407 0.04444,0.05013 -0.01458,-0.0105 -0.02957,-0.02049 -0.04496,-0.02997 2.4e-4,-0.0052 4.17e-4,-0.01033 5.29e-4,-0.0155 6e-6,-0.0016 6e-6,-0.0031 0,-0.0047 z m 0.142626,0.135392 c 0.0098,0.0069 0.0198,0.01366 0.02997,0.02015 -0.0038,-2.03e-4 -0.0076,-3.79e-4 -0.01137,-5.29e-4 h -5.3e-4 c -0.0059,-0.0067 0.344323,0.343969 0.338159,0.337526 z"
       sodipodi:nodetypes="ccccccccccccccccccccccccccccccccccccccccccccccccccccccccccccccccccccccccccccscccccccccccccccccccccccccccccccccccccccc" />
  </g>
</svg>
